#!OML:ASF H:\BreakDance\Project 1\Capture day 1\Session 1\Male.ASF
:FULLY-SPECIFIED
:DEGREES
437
root 21.9921 15.8769 -7.77517 -340.845 -79.5081 349.932
lowerback -3.1379 -5.22184 -0.708082
upperback 0.620894 -6.95604 0.807034
thorax 2.57251 -3.48613 0.841666
lowerneck -3.92129 3.77735 1.25961
upperneck -10.7291 5.12726 4.9182
head -2.86184 2.22555 1.30812
rclavicle 3.47873e-016 -1.39149e-014
rhumerus -28.2032 5.64304 -92.4147
rradius 43.887
rwrist 3.34484
rhand -39.907 -36.0126
rfingers 7.12502
rthumb -12.8781 -65.5953
lclavicle 3.47873e-016 -1.39149e-014
lhumerus -6.21056 -66.7882 100.247
lradius 67.2801
lwrist -8.93672
lhand -31.9039 -46.4398
lfingers 7.12502
lthumb -5.15598 -16.5225
rfemur -47.0674 1.12132 11.9626
rtibia 56.5985
rfoot -19.4362 1.51513
rtoes 1.64501
lfemur -6.99031 13.1797 -24.4091
ltibia 41.4554
lfoot -32.3212 5.05305
ltoes -21.6293
438
root 21.8394 15.9518 -7.73852 -339.346 -81.6483 348.326
lowerback -3.11808 -5.38572 -0.174498
upperback 0.576504 -7.20104 0.999855
thorax 2.48081 -3.60253 0.738864
lowerneck -3.7097 4.65626 1.43017
upperneck -10.2197 6.25569 4.22745
head -2.71805 2.81807 1.03625
rclavicle 9.22858e-014 -8.34896e-015
rhumerus -28.1796 6.6671 -92.5538
rradius 41.3037
rwrist 2.97679
rhand -39.3974 -36.2418
rfingers 7.12502
rthumb -12.3869 -65.8548
lclavicle 9.22858e-014 -8.34896e-015
lhumerus -6.31621 -66.4639 100.727
lradius 66.6383
lwrist -8.77966
lhand -31.7348 -45.9773
lfingers 7.12502
lthumb -4.99265 -16.0561
rfemur -47.2095 1.52721 12.4011
rtibia 56.6866
rfoot -19.095 1.13469
rtoes 2.42163
lfemur -6.48672 14.737 -24.5745
ltibia 41.4091
lfoot -29.8771 4.72737
ltoes -22.9627
439
root 21.6869 16.0226 -7.70259 -336.794 -83.6754 345.704
lowerback -3.04765 -5.56257 0.412387
upperback 0.526528 -7.46484 1.2067
thorax 2.34785 -3.7287 0.627666
lowerneck -3.51405 5.49835 1.57913
upperneck -9.64687 7.33576 3.50517
head -2.53987 3.39068 0.765943
rclavicle 5.63058e-014 -6.36111e-015
rhumerus -28.109 7.58906 -92.5994
rradius 38.7414
rwrist 2.42039
rhand -38.8349 -36.5145
rfingers 7.12502
rthumb -11.8444 -66.1595
lclavicle 5.63058e-014 -6.36111e-015
lhumerus -6.22104 -66.0979 100.863
lradius 65.9017
lwrist -8.84472
lhand -31.6739 -45.39
lfingers 7.12502
lthumb -4.93384 -15.4674
rfemur -47.3117 1.80595 12.8754
rtibia 56.7955
rfoot -18.7842 0.582055
rtoes 2.38652
lfemur -6.2192 16.3952 -24.6516
ltibia 41.6753
lfoot -27.3978 4.30064
ltoes -24.6943
440
root 21.5344 16.0879 -7.66691 -332.413 -85.5693 341.282
lowerback -2.95532 -5.75027 1.03615
upperback 0.490289 -7.74304 1.40873
thorax 2.20833 -3.86256 0.494796
lowerneck -3.35577 6.29816 1.70768
upperneck -9.02118 8.36102 2.76421
head -2.32908 3.93847 0.503556
rclavicle -5.43179e-014 3.00165e-014
rhumerus -28.006 8.3092 -92.5216
rradius 36.2726
rwrist 1.81378
rhand -38.26 -36.9472
rfingers 7.12502
rthumb -11.29 -66.6234
lclavicle -5.43179e-014 3.00165e-014
lhumerus -5.87574 -65.7245 100.617
lradius 65.0724
lwrist -9.02855
lhand -31.6277 -44.724
lfingers 7.12502
lthumb -4.88923 -14.8004
rfemur -47.3561 1.9334 13.3397
rtibia 56.929
rfoot -18.536 -0.0444109
rtoes 1.67671
lfemur -6.143 18.1038 -24.6693
ltibia 42.2476
lfoot -25.0067 3.78648
ltoes -26.5984
441
root 21.3834 16.1483 -7.63112 -323.46 -87.328 332.331
lowerback -2.85133 -5.93619 1.65645
upperback 0.472636 -8.01681 1.59313
thorax 2.0758 -3.99492 0.348941
lowerneck -3.26777 7.04425 1.85871
upperneck -8.34314 9.31319 1.9732
head -2.07805 4.4506 0.235688
rclavicle 7.2867e-014 1.39149e-015
rhumerus -27.8713 8.71417 -92.2748
rradius 33.9532
rwrist 1.41218
rhand -37.7011 -37.4968
rfingers 7.12502
rthumb -10.751 -67.2017
lclavicle 7.2867e-014 1.39149e-015
lhumerus -5.2692 -65.3685 99.991
lradius 64.1687
lwrist -9.2264
lhand -31.521 -43.9924
lfingers 7.12502
lthumb -4.78625 -14.0665
rfemur -47.3835 1.93659 13.7332
rtibia 57.0986
rfoot -18.3746 -0.616758
rtoes 0.887226
lfemur -6.26035 19.7865 -24.6885
ltibia 43.0946
lfoot -22.7874 3.11038
ltoes -28.1079
442
root 21.2347 16.2041 -7.59574 -292.6 -88.8385 301.519
lowerback -2.74941 -6.10656 2.21612
upperback 0.490812 -8.26623 1.74505
thorax 1.98155 -4.11566 0.203668
lowerneck -3.22496 7.74047 1.98732
upperneck -7.69561 10.2048 1.20581
head -1.82621 4.92897 -0.00956829
rclavicle 8.5875e-014 1.17283e-014
rhumerus -27.7091 8.75716 -91.8493
rradius 31.8436
rwrist 1.41045
rhand -37.2173 -38.199
rfingers 7.12502
rthumb -10.2842 -67.9275
lclavicle 8.5875e-014 1.17283e-014
lhumerus -4.35628 -65.0596 98.9401
lradius 63.2084
lwrist -9.35187
lhand -31.3006 -43.2511
lfingers 7.12502
lthumb -4.57345 -13.3205
rfemur -47.4211 1.86837 13.9984
rtibia 57.3201
rfoot -18.3039 -1.00666
rtoes 0.682558
lfemur -6.54941 21.3846 -24.7621
ltibia 44.1591
lfoot -20.8282 2.32901
ltoes -29.1424
